<svg id="footer-logo" xmlns="http://www.w3.org/2000/svg" width="259.006" height="29.262" viewBox="0 0 259.006 29.262">
  <g id="roku-logo">
    <path id="Path_33" data-name="Path 33" d="M54.556,310.314H45.874l-6.9-9.563H36.654V310.3H29V281.61H39.957c6.319,0,11.481,4.3,11.481,9.587a9.324,9.324,0,0,1-4.981,7.871l8.1,11.25M43.8,291.193a4.8,4.8,0,0,0-4.781-4.817H36.654v9.595h2.367a4.793,4.793,0,0,0,4.773-4.777Z" transform="translate(-29 -281.61)" fill="#662d91"/>
    <path id="Path_34" data-name="Path 34" d="M165.239,322.19a11.724,11.724,0,1,1-3.462-8.295,11.754,11.754,0,0,1,3.462,8.295m-11.78-6.15c-2.028,0-3.741,2.755-3.741,6.15s1.713,6.146,3.741,6.146c2.066,0,3.785-2.749,3.785-6.146S155.531,316.04,153.459,316.04Z" transform="translate(-119.272 -304.736)" fill="#662d91"/>
    <path id="Path_35" data-name="Path 35" d="M283.672,312.784l-8.816,8.82V312.76H267.2v22.474h7.656v-9.118l9.206,9.118h9.626l-11.694-11.7,9.69-9.686V327.2c0,4.433,2.658,8.515,9.363,8.515a10.619,10.619,0,0,0,7.521-3.439l3.445,2.966h1.63V312.784h-7.634v14.543a4.294,4.294,0,0,1-3.919,2.452c-1.887,0-2.749-1.12-2.749-4.688V312.784Z" transform="translate(-219.745 -306.554)" fill="#662d91"/>
    <path id="Path_36" data-name="Path 36" d="M511.092,314.124a1.512,1.512,0,1,1,1.512-1.512A1.512,1.512,0,0,1,511.092,314.124Zm0-2.875a1.363,1.363,0,1,0,1.363,1.363,1.363,1.363,0,0,0-1.363-1.363Z" transform="translate(-413.838 -305.225)" fill="#662d91"/>
    <path id="Path_37" data-name="Path 37" d="M513.9,314.836h.683a.61.61,0,0,1,.442.153.462.462,0,0,1,.128.331h0a.458.458,0,0,1-.365.464l.414.582h-.319l-.379-.536h-.337v.536H513.9Zm.663.761c.2,0,.315-.1.315-.257h0c0-.165-.118-.255-.317-.255h-.4v.516Z" transform="translate(-417.297 -308.215)" fill="#662d91"/>
  </g>
  <g id="FlashbackLOGO" transform="translate(99.006 3.382)">
    <g id="Layer_1" data-name="Layer 1">
      <path id="Path_1" data-name="Path 1" d="M4.09,5.531A10.147,10.147,0,0,0,2,5.959a11.757,11.757,0,0,1-.684-2.708C1.311.472,3.492.4,6.085.4,8.408.372,11.4.643,13.923.643A44.292,44.292,0,0,0,18.84.4a6.342,6.342,0,0,1,.713,2.708c0,2.28-1.283,2.665-3.848,2.665-1.739,0-3.848-.171-5.487-.242l-.5,5.3H11.4a18.113,18.113,0,0,0,4.176-.527,7.382,7.382,0,0,1,.67,2.85c0,2.594-1.952,2.922-3.591,2.922-.57,0-2.394-.114-3.463-.185-1.026,7.624-1.425,9.092-4.7,9.092A7.553,7.553,0,0,1,0,22.918C2.38,19.64,3.805,10.8,4.09,5.531Z" transform="translate(0 0.201)" fill="#5cc7a1"/>
      <path id="Path_2" data-name="Path 2" d="M22.142,3.135a51.3,51.3,0,0,1-1.425,8.551,37.2,37.2,0,0,0-.884,6.584c0,3.349,1.568,4.56,1.568,4.56a5.43,5.43,0,0,1-4.6,2.394c-3.135,0-3.848-2.18-3.848-4.275a81.046,81.046,0,0,1,1.425-9.335,47.9,47.9,0,0,0,.641-5.985,5.914,5.914,0,0,0-.855-3.777A6.741,6.741,0,0,1,18.722,0C21.173,0,22.142,1.425,22.142,3.135Z" transform="translate(5.505 0.032)" fill="#5cc7a1"/>
      <path id="Path_3" data-name="Path 3" d="M33.795,6.285a7.126,7.126,0,0,1,3.634-.67,7.126,7.126,0,0,1,1.211.071,55.465,55.465,0,0,0-1.425,11.4A6.071,6.071,0,0,0,38.5,21.106a7.126,7.126,0,0,1-4.988,1.967c-1.539,0-1.967-.641-1.967-2.038a13.638,13.638,0,0,1,.4-2.736h-.328c-1.6,4.033-3.42,4.959-5.7,4.959S19.9,22,19.9,15.947c0-8.408,5.872-11.216,9.477-11.216A6.427,6.427,0,0,1,33.795,6.285Zm-6.983,9.662a6.256,6.256,0,0,0,.428,2.85c.855,0,1.952-.969,2.993-3.492a27.776,27.776,0,0,0,1.425-5.914,3.477,3.477,0,0,0-2.024-.542C28.166,8.85,26.812,12.6,26.812,15.947Z" transform="translate(8.46 2.041)" fill="#5cc7a1"/>
      <path id="Path_4" data-name="Path 4" d="M49.439,8.045c0,2.38-3.449,3.278-3.449,3.278A4.617,4.617,0,0,0,43.211,7.86,1.653,1.653,0,0,0,41.957,9.4c0,.926,1.183,1.639,2.252,2.252C46.275,12.819,48.7,14.1,48.7,17.137c0,3.777-3.563,6.128-8.693,6.128-4.674,0-6.385-1.853-6.385-3.748,0-2.736,3.42-3.99,3.42-3.99A21.534,21.534,0,0,0,40.318,20.2a2.337,2.337,0,0,0,1.753-2c0-1.325-1.568-2-2.85-2.85-2.38-1.425-4.019-2.85-4.019-5.273,0-3.948,4.56-5.373,8.551-5.373C45.705,4.767,49.439,5.123,49.439,8.045Z" transform="translate(14.293 2.034)" fill="#5cc7a1"/>
      <path id="Path_5" data-name="Path 5" d="M51.9.009A2.736,2.736,0,0,1,55.04,3a25,25,0,0,1-1.967,8.08h.185a6.8,6.8,0,0,1,6.2-4.275A4.831,4.831,0,0,1,64.3,9.9a34.1,34.1,0,0,0-2,9.976,3.278,3.278,0,0,0,1.425,2.565,5.914,5.914,0,0,1-4.959,2.922c-2.565,0-3.449-1.283-3.449-3.463a48.711,48.711,0,0,1,2-9.691l-.257-.1c-1.853.171-3.349,2.166-3.876,4.275a40.944,40.944,0,0,0-.827,8.693,33.306,33.306,0,0,1-3.378.257c-2.608,0-3.463-1.325-3.463-2.993a15.961,15.961,0,0,1,.9-4.275A37.238,37.238,0,0,0,47.843,7.335c0-1.1-.257-4.019-1.14-5.016A6.356,6.356,0,0,1,51.9.009Z" transform="translate(19.352 0.022)" fill="#5cc7a1"/>
      <path id="Path_6" data-name="Path 6" d="M68.706,3.073a19.781,19.781,0,0,1-1.24,6.584l.214.071a6.613,6.613,0,0,1,5.7-2.95c3.777,0,5.487,3.207,5.487,6.442,0,6.1-3.093,12.085-9.121,12.085a5.145,5.145,0,0,1-4.275-2.323l-.114.071-.143,2.038s-1.739.214-2.665.214c-2.351,0-3.349-.784-3.349-1.9a19.5,19.5,0,0,1,.926-4.56,42.54,42.54,0,0,0,1.81-11.9c0-1.71-.456-3.876-1.425-4.589A6.313,6.313,0,0,1,65.57.009a2.75,2.75,0,0,1,3.135,3.064Zm-2.28,16.674a2.85,2.85,0,0,0,2.252,1.169c1.639,0,3.278-3.734,3.278-7.439a3.805,3.805,0,0,0-.47-2.066c-1.881,0-3.449,2.423-5.059,8.337Z" transform="translate(25.167 0.023)" fill="#5cc7a1"/>
      <path id="Path_7" data-name="Path 7" d="M87.623,6.285a10.11,10.11,0,0,1,4.817-.6,56.45,56.45,0,0,0-1.425,11.4A6.157,6.157,0,0,0,92.3,21.106a7.126,7.126,0,0,1-4.988,1.967c-1.525,0-1.952-.641-1.952-2.038a13.539,13.539,0,0,1,.385-2.736h-.314c-1.61,4.033-3.42,4.959-5.7,4.959S73.7,22,73.7,15.947c0-8.408,5.886-11.216,9.477-11.216a6.4,6.4,0,0,1,4.446,1.553ZM80.64,15.947a6.484,6.484,0,0,0,.428,2.85c.855,0,1.967-.969,2.993-3.492a28.589,28.589,0,0,0,1.468-5.914,3.534,3.534,0,0,0-2.038-.542C81.994,8.85,80.64,12.6,80.64,15.947Z" transform="translate(31.332 2.041)" fill="#5cc7a1"/>
      <path id="Path_8" data-name="Path 8" d="M95.813,23.277a7.781,7.781,0,0,1-8.237-8.308c0-7.225,4.389-10.218,10.446-10.218,2.351,0,5.444.855,5.444,3.591,0,3.036-4.8,3.677-4.8,3.677-.214-1.325-.855-3.036-1.568-3.036-1.254,0-2.636,2.109-2.636,6.385a5.7,5.7,0,0,0,1.24,3.99,11.4,11.4,0,0,0,2.85-3.748s3.891.9,3.891,3.42S99.447,23.277,95.813,23.277Z" transform="translate(37.222 2.051)" fill="#5cc7a1"/>
      <path id="Path_9" data-name="Path 9" d="M106.816,18.242h-.285a40.288,40.288,0,0,0-.5,6.8c-1.04.143-2.75.257-3.107.257-2.708,0-3.705-1.14-3.705-2.85,0-3.064,2.28-6.014,2.28-13.923,0-2.537-.214-5.031-1.14-6.128A6.67,6.67,0,0,1,105.491,0c2.537,0,3.249,1.425,3.249,3.064a22.945,22.945,0,0,1-1.924,7.867h.171a6.94,6.94,0,0,1,6.171-4.161,4.347,4.347,0,0,1,4.66,4.446c0,2.28-1.211,5.2-5.7,6.342a9.748,9.748,0,0,0,4.8,4.461S115.4,25.3,112.445,25.3,108.056,21.876,106.816,18.242Zm.171-2.423c2.608,0,4.774-1.325,4.774-3.207a1.425,1.425,0,0,0-.67-1.254,6.769,6.769,0,0,0-4.1,4.461Z" transform="translate(42.181 0.032)" fill="#5cc7a1"/>
    </g>
  </g>
</svg>
