<svg xmlns="http://www.w3.org/2000/svg" width="200.817" height="22.487" viewBox="0 0 200.817 22.487">
  <g id="LOGO" transform="translate(-139.826 -30.753)">
    <g id="roku-logo" transform="translate(139.826 30.753)">
      <path id="Path_10" data-name="Path 10" d="M48.64,303.669H41.968l-5.3-7.349H34.882v7.337H29V281.61h8.421c4.856,0,8.823,3.3,8.823,7.367a7.166,7.166,0,0,1-3.828,6.049l6.222,8.646m-8.267-14.7a3.687,3.687,0,0,0-3.674-3.7H34.882v7.373H36.7a3.684,3.684,0,0,0,3.668-3.671Z" transform="translate(-29 -281.61)" fill="#fff"/>
      <path id="Path_11" data-name="Path 11" d="M159.8,319.481a9.01,9.01,0,1,1-2.661-6.374,9.033,9.033,0,0,1,2.661,6.374m-9.053-4.726c-1.559,0-2.875,2.117-2.875,4.726s1.317,4.723,2.875,4.723c1.588,0,2.909-2.113,2.909-4.723S152.336,314.755,150.744,314.755Z" transform="translate(-124.471 -306.068)" fill="#fff"/>
      <path id="Path_12" data-name="Path 12" d="M279.858,312.778l-6.775,6.778v-6.8H267.2v17.271h5.884v-7.007l7.075,7.007h7.4l-8.987-8.992,7.447-7.444v10.258c0,3.406,2.042,6.544,7.2,6.544a8.161,8.161,0,0,0,5.78-2.643l2.647,2.28h1.252V312.778h-5.867v11.176a3.3,3.3,0,0,1-3.012,1.885c-1.45,0-2.113-.86-2.113-3.6v-9.459Z" transform="translate(-230.731 -307.991)" fill="#fff"/>
      <path id="Path_13" data-name="Path 13" d="M510.742,313.424a1.162,1.162,0,1,1,1.162-1.162A1.162,1.162,0,0,1,510.742,313.424Zm0-2.209a1.047,1.047,0,1,0,1.047,1.047A1.047,1.047,0,0,0,510.742,311.215Z" transform="translate(-436.003 -306.585)" fill="#fff"/>
      <path id="Path_14" data-name="Path 14" d="M513.9,314.835h.525a.468.468,0,0,1,.34.118.355.355,0,0,1,.1.254h0a.352.352,0,0,1-.28.357l.318.447h-.245l-.291-.412h-.259v.412H513.9Zm.51.585c.153,0,.242-.078.242-.2h0c0-.127-.09-.2-.243-.2H514.1v.4Z" transform="translate(-439.661 -309.748)" fill="#fff"/>
    </g>
    <g id="FlashbackLOGO" transform="translate(212.721 32.55)">
      <g id="Layer_1" data-name="Layer 1" transform="translate(0 0)">
        <path id="Path_1" data-name="Path 1" d="M3.27,4.5A8.113,8.113,0,0,0,1.6,4.844a9.4,9.4,0,0,1-.547-2.165C1.048.457,2.792.4,4.865.4c1.857-.023,4.25.194,6.267.194A35.412,35.412,0,0,0,15.063.4a5.07,5.07,0,0,1,.57,2.165c0,1.823-1.025,2.131-3.076,2.131-1.39,0-3.076-.137-4.387-.194l-.4,4.239H9.115a14.482,14.482,0,0,0,3.338-.422,5.9,5.9,0,0,1,.536,2.279c0,2.074-1.561,2.336-2.871,2.336-.456,0-1.914-.091-2.769-.148-.82,6.1-1.139,7.269-3.76,7.269A6.039,6.039,0,0,1,0,18.4C1.9,15.782,3.042,8.718,3.27,4.5Z" transform="translate(0 0.081)" fill="#fff"/>
        <path id="Path_2" data-name="Path 2" d="M20.3,2.507A41.018,41.018,0,0,1,19.16,9.343a29.738,29.738,0,0,0-.706,5.264c0,2.678,1.253,3.646,1.253,3.646a4.341,4.341,0,0,1-3.68,1.914c-2.507,0-3.076-1.743-3.076-3.418a64.8,64.8,0,0,1,1.139-7.463A38.3,38.3,0,0,0,14.6,4.5a4.729,4.729,0,0,0-.684-3.019A5.389,5.389,0,0,1,17.565,0C19.524,0,20.3,1.139,20.3,2.507Z" transform="translate(1.805 0.025)" fill="#fff"/>
        <path id="Path_3" data-name="Path 3" d="M31.009,5.972a5.7,5.7,0,0,1,2.905-.536,5.7,5.7,0,0,1,.968.057,44.345,44.345,0,0,0-1.139,9.115,4.854,4.854,0,0,0,1.025,3.213,5.7,5.7,0,0,1-3.988,1.572c-1.231,0-1.572-.513-1.572-1.629a10.9,10.9,0,0,1,.319-2.188h-.262c-1.276,3.225-2.735,3.965-4.558,3.965S19.9,18.54,19.9,13.7c0-6.723,4.694-8.967,7.577-8.967A5.139,5.139,0,0,1,31.009,5.972ZM25.426,13.7a5,5,0,0,0,.342,2.279c.684,0,1.561-.775,2.393-2.792A22.207,22.207,0,0,0,29.3,8.456a2.78,2.78,0,0,0-1.618-.433C26.509,8.023,25.426,11.02,25.426,13.7Z" transform="translate(2.774 0.684)" fill="#fff"/>
        <path id="Path_4" data-name="Path 4" d="M46.267,7.376c0,1.9-2.757,2.621-2.757,2.621a3.692,3.692,0,0,0-2.222-2.769,1.322,1.322,0,0,0-1,1.231c0,.741.946,1.31,1.8,1.8,1.652.934,3.589,1.96,3.589,4.387,0,3.019-2.849,4.9-6.95,4.9-3.737,0-5.1-1.481-5.1-3,0-2.188,2.735-3.19,2.735-3.19A17.216,17.216,0,0,0,38.975,17.1a1.869,1.869,0,0,0,1.4-1.6c0-1.06-1.253-1.6-2.279-2.279-1.9-1.139-3.213-2.279-3.213-4.216,0-3.156,3.646-4.3,6.836-4.3C43.282,4.756,46.267,5.04,46.267,7.376Z" transform="translate(4.687 0.682)" fill="#fff"/>
        <path id="Path_5" data-name="Path 5" d="M50.625,0A2.188,2.188,0,0,1,53.131,2.4a19.985,19.985,0,0,1-1.572,6.46h.148a5.435,5.435,0,0,1,4.956-3.418,3.863,3.863,0,0,1,3.874,2.473,27.266,27.266,0,0,0-1.6,7.976,2.621,2.621,0,0,0,1.139,2.051,4.729,4.729,0,0,1-3.965,2.336c-2.051,0-2.757-1.025-2.757-2.769a38.945,38.945,0,0,1,1.6-7.748l-.205-.08c-1.481.137-2.678,1.732-3.1,3.418a32.736,32.736,0,0,0-.661,6.95,26.628,26.628,0,0,1-2.7.205c-2.085,0-2.769-1.06-2.769-2.393a12.761,12.761,0,0,1,.718-3.418,29.773,29.773,0,0,0,1.139-8.58c0-.877-.205-3.213-.912-4.011A5.082,5.082,0,0,1,50.625,0Z" transform="translate(6.346 0.022)" fill="#fff"/>
        <path id="Path_6" data-name="Path 6" d="M66.8,2.453a15.815,15.815,0,0,1-.991,5.264l.171.057a5.287,5.287,0,0,1,4.558-2.359c3.019,0,4.387,2.564,4.387,5.15,0,4.877-2.473,9.662-7.292,9.662a4.113,4.113,0,0,1-3.418-1.857l-.091.057-.114,1.629s-1.39.171-2.131.171c-1.88,0-2.678-.627-2.678-1.515a15.586,15.586,0,0,1,.741-3.646,34.012,34.012,0,0,0,1.447-9.514c0-1.367-.365-3.1-1.139-3.669A5.048,5.048,0,0,1,64.293,0,2.2,2.2,0,0,1,66.8,2.453ZM64.977,15.784a2.279,2.279,0,0,0,1.8.934c1.31,0,2.621-2.985,2.621-5.948a3.042,3.042,0,0,0-.376-1.652c-1.5,0-2.757,1.937-4.045,6.666Z" transform="translate(8.253 0.022)" fill="#fff"/>
        <path id="Path_7" data-name="Path 7" d="M84.832,5.972a8.083,8.083,0,0,1,3.851-.479,45.133,45.133,0,0,0-1.139,9.115,4.922,4.922,0,0,0,1.025,3.213,5.7,5.7,0,0,1-3.988,1.572c-1.219,0-1.561-.513-1.561-1.629a10.824,10.824,0,0,1,.308-2.188h-.251c-1.288,3.225-2.735,3.965-4.558,3.965s-4.82-1-4.82-5.845c0-6.723,4.706-8.967,7.577-8.967a5.116,5.116,0,0,1,3.555,1.242ZM79.249,13.7a5.184,5.184,0,0,0,.342,2.279c.684,0,1.572-.775,2.393-2.792a22.857,22.857,0,0,0,1.174-4.729,2.826,2.826,0,0,0-1.629-.433C80.331,8.023,79.249,11.02,79.249,13.7Z" transform="translate(10.274 0.684)" fill="#fff"/>
        <path id="Path_8" data-name="Path 8" d="M94.158,19.562a6.221,6.221,0,0,1-6.586-6.643c0-5.777,3.509-8.17,8.352-8.17,1.88,0,4.353.684,4.353,2.871,0,2.427-3.84,2.94-3.84,2.94-.171-1.06-.684-2.427-1.253-2.427-1,0-2.108,1.686-2.108,5.1a4.558,4.558,0,0,0,.991,3.19,9.115,9.115,0,0,0,2.279-3s3.111.718,3.111,2.735S97.063,19.562,94.158,19.562Z" transform="translate(12.206 0.687)" fill="#fff"/>
        <path id="Path_9" data-name="Path 9" d="M105.293,14.584h-.228a32.211,32.211,0,0,0-.4,5.435c-.832.114-2.2.205-2.484.205-2.165,0-2.962-.912-2.962-2.279,0-2.45,1.823-4.808,1.823-11.132,0-2.028-.171-4.022-.912-4.9A5.332,5.332,0,0,1,104.233,0c2.028,0,2.6,1.139,2.6,2.45a18.345,18.345,0,0,1-1.538,6.29h.137a5.549,5.549,0,0,1,4.934-3.327,3.475,3.475,0,0,1,3.726,3.555c0,1.823-.968,4.159-4.558,5.07a7.794,7.794,0,0,0,3.84,3.566s-1.219,2.621-3.578,2.621S106.284,17.49,105.293,14.584Zm.137-1.937c2.085,0,3.817-1.06,3.817-2.564a1.139,1.139,0,0,0-.536-1,5.412,5.412,0,0,0-3.282,3.566Z" transform="translate(13.832 0.025)" fill="#fff"/>
      </g>
    </g>
  </g>
</svg>
