<svg xmlns="http://www.w3.org/2000/svg" width="30" height="34.135" viewBox="0 0 30 34.135">
  <g id="power-icon" transform="translate(-31.01)">
    <g id="Group_41" data-name="Group 41" transform="translate(42.983)">
      <g id="Group_40" data-name="Group 40">
        <path id="Path_55" data-name="Path 55" d="M214.051,0a3.032,3.032,0,0,0-3.029,3.029V15.213a3.029,3.029,0,1,0,6.058,0V3.029A3.032,3.032,0,0,0,214.051,0Z" transform="translate(-211.022)"/>
      </g>
    </g>
    <g id="Group_43" data-name="Group 43" transform="translate(31.01 7.206)">
      <g id="Group_42" data-name="Group 42">
        <path id="Path_56" data-name="Path 56" d="M56.052,107.86a3.02,3.02,0,0,0-4.2.125,2.982,2.982,0,0,0,.21,4.342,9,9,0,1,1-12.1,0,2.988,2.988,0,0,0,.216-4.347,3.036,3.036,0,0,0-4.227-.1A15,15,0,0,0,46.047,134,15,15,0,0,0,56.052,107.86Z" transform="translate(-31.01 -107.07)"/>
      </g>
    </g>
  </g>
</svg>
