<svg xmlns="http://www.w3.org/2000/svg" width="24" height="24" viewBox="0 0 24 24">
  <path id="share-icon" d="M18.857,15a5.6,5.6,0,0,0-3.2.979l-5.49-3a3.974,3.974,0,0,0,0-1.954l5.49-3a5.6,5.6,0,0,0,3.2.979C21.7,9,24,6.985,24,4.5S21.7,0,18.857,0s-5.143,2.015-5.143,4.5a3.975,3.975,0,0,0,.122.977l-5.49,3a5.6,5.6,0,0,0-3.2-.979C2.3,7.5,0,9.515,0,12s2.3,4.5,5.143,4.5a5.6,5.6,0,0,0,3.2-.979l5.49,3a3.975,3.975,0,0,0-.122.977c0,2.485,2.3,4.5,5.143,4.5S24,21.985,24,19.5,21.7,15,18.857,15Z" fill="#5fb2b2"/>
</svg>
